<?xml version="1.0" encoding="UTF-8"?>
<svg width="48px" height="48px" viewBox="0 0 48 48" version="1.1" xmlns="http://www.w3.org/2000/svg" xmlns:xlink="http://www.w3.org/1999/xlink">
    <!-- Generator: Sketch 42 (36781) - http://www.bohemiancoding.com/sketch -->
    <title>20-dryer</title>
    <desc>Created with Sketch.</desc>
    <defs>
        <rect id="path-1" x="10" y="7" width="28" height="34"></rect>
        <mask id="mask-2" maskContentUnits="userSpaceOnUse" maskUnits="objectBoundingBox" x="0" y="0" width="28" height="34" fill="white">
            <use xlink:href="#path-1"></use>
        </mask>
    </defs>
    <g id="Page-1" stroke="none" stroke-width="1" fill="none" fill-rule="evenodd">
        <g id="20-dryer">
            <rect id="Rectangle-9" fill-opacity="0" fill="#FFFFFF" x="0" y="0" width="48" height="48"></rect>
            <rect id="Rectangle-2" fill="#4A4A4A" x="0" y="39" width="48" height="2"></rect>
            <use id="Rectangle-2" stroke="#4A4A4A" mask="url(#mask-2)" stroke-width="4" xlink:href="#path-1"></use>
            <path d="M16,22.9962027 L16,31.0037973 C16,32.1066194 16.8931143,33 17.9947834,33 L30.0052166,33 C31.1049045,33 32,32.1050802 32,31.0037973 L32,22.9962027 C32,21.8933806 31.1068857,21 30.0052166,21 L17.9947834,21 C16.8950955,21 16,21.8949198 16,22.9962027 Z M14,22.9962027 C14,20.7891609 15.7917156,19 17.9947834,19 L30.0052166,19 C32.2114745,19 34,20.7888304 34,22.9962027 L34,31.0037973 C34,33.2108391 32.2082844,35 30.0052166,35 L17.9947834,35 C15.7885255,35 14,33.2111696 14,31.0037973 L14,22.9962027 Z" id="Rectangle-2" fill="#4A4A4A" fill-rule="nonzero"></path>
            <rect id="Rectangle-2" fill="#4A4A4A" x="27" y="10" width="8" height="2"></rect>
            <rect id="Rectangle-2" fill="#4A4A4A" x="23" y="10" width="2" height="2"></rect>
            <rect id="Rectangle-2" fill="#4A4A4A" x="10" y="13" width="28" height="2"></rect>
        </g>
    </g>
</svg>