<?xml version="1.0" encoding="UTF-8"?>
<svg width="48px" height="48px" viewBox="0 0 48 48" version="1.1" xmlns="http://www.w3.org/2000/svg" xmlns:xlink="http://www.w3.org/1999/xlink">
    <!-- Generator: Sketch 42 (36781) - http://www.bohemiancoding.com/sketch -->
    <title>15-guest-toilet</title>
    <desc>Created with Sketch.</desc>
    <defs>
        <polygon id="path-1" points="0.0061 44 14.829 44 14.829 0.3472 0.0061 0.3472 0.0061 44"></polygon>
        <polygon id="path-3" points="0 48 40.829 48 40.829 0 0 0"></polygon>
    </defs>
    <g id="hotel-room-detail" stroke="none" stroke-width="1" fill="none" fill-rule="evenodd">
        <g id="15-guest-toilet">
            <rect id="Rectangle-9" x="0" y="0" width="48" height="48"></rect>
            <g id="Page-1" transform="translate(4.000000, 0.000000)">
                <g id="Group-3" transform="translate(26.000000, 4.000000)">
                    <mask id="mask-2" fill="white">
                        <use xlink:href="#path-1"></use>
                    </mask>
                    <g id="Clip-2"></g>
                    <path d="M13.4201,26.5732 L11.4751,26.5732 L11.4751,23.1022 L11.4751,16.3422 L11.4751,15.2412 C11.4751,14.8522 11.1601,14.5362 10.7711,14.5362 C10.3821,14.5362 10.0661,14.8522 10.0661,15.2412 L10.0661,16.3422 L10.0661,23.1022 L10.0661,27.2772 C10.0661,27.6672 10.3821,27.9822 10.7711,27.9822 L12.0111,27.9822 L12.6601,30.6262 L2.1751,30.6262 L2.8241,27.9822 L4.0641,27.9822 C4.4531,27.9822 4.7681,27.6672 4.7681,27.2772 L4.7681,23.1022 L4.7681,16.3422 L4.7681,15.2412 C4.7681,14.8522 4.4531,14.5362 4.0641,14.5362 C3.6741,14.5362 3.3591,14.8522 3.3591,15.2412 L3.3591,16.3422 L3.3591,23.1022 L3.3591,26.5732 L1.4151,26.5732 L1.4151,15.0592 C1.4151,13.6992 2.5211,12.5922 3.8821,12.5922 L7.4171,12.5922 L10.9531,12.5922 C12.3131,12.5922 13.4201,13.6982 13.4201,15.0592 L13.4201,26.5732 Z M8.1221,42.5912 L8.1221,34.9082 L8.1221,32.0352 L10.0661,32.0352 L10.0661,42.5912 L8.1221,42.5912 Z M6.7131,34.9082 L6.7131,42.5912 L4.7681,42.5912 L4.7681,32.0352 L6.7131,32.0352 L6.7131,34.9082 Z M4.7681,11.1832 L4.7681,9.6572 C5.5121,10.3122 6.4871,10.7102 7.5541,10.7102 C8.6341,10.7102 9.6191,10.3022 10.3671,9.6332 L10.3671,11.1832 L7.4171,11.1832 L7.4171,11.1832 L4.7681,11.1832 Z M4.9751,3.4482 L10.3671,5.0902 L10.3671,6.2292 L10.3671,6.4882 C10.3671,8.0392 9.1051,9.3012 7.5541,9.3012 C6.1341,9.3012 4.9571,8.2432 4.7681,6.8742 L4.7681,6.2292 C4.7681,6.1632 4.7581,6.0992 4.7411,6.0382 L4.7411,4.5692 L4.7411,4.5692 C4.7411,4.1702 4.8251,3.7912 4.9751,3.4482 L4.9751,3.4482 Z M7.5541,1.7562 C8.7501,1.7562 9.7731,2.5062 10.1791,3.5612 L5.9381,2.2682 C6.3961,1.9462 6.9531,1.7562 7.5541,1.7562 L7.5541,1.7562 Z M11.7761,11.2722 L11.7761,6.4882 L11.7761,6.2302 L11.7761,4.5692 C11.7761,4.5642 11.7751,4.5592 11.7751,4.5542 C11.7671,2.2332 9.8771,0.3472 7.5541,0.3472 C5.2261,0.3472 3.3321,2.2412 3.3321,4.5692 L3.3321,6.4882 C3.3321,6.6482 3.3421,6.8052 3.3591,6.9602 L3.3591,11.2192 C1.4681,11.4752 0.0061,13.0992 0.0061,15.0592 L0.0061,27.2772 C0.0061,27.6672 0.3211,27.9822 0.7101,27.9822 L1.3731,27.9822 L0.5931,31.1622 C0.5411,31.3722 0.5891,31.5952 0.7221,31.7652 C0.8561,31.9352 1.0601,32.0352 1.2771,32.0352 L3.3591,32.0352 L3.3591,43.2952 C3.3591,43.6842 3.6751,44.0002 4.0641,44.0002 L7.4171,44.0002 L10.7711,44.0002 C11.1601,44.0002 11.4751,43.6842 11.4751,43.2952 L11.4751,32.0352 L13.5581,32.0352 C13.7741,32.0352 13.9791,31.9352 14.1121,31.7652 C14.2461,31.5952 14.2941,31.3722 14.2421,31.1622 L13.4621,27.9822 L14.1241,27.9822 C14.5131,27.9822 14.8291,27.6672 14.8291,27.2772 L14.8291,15.0592 C14.8291,13.2042 13.5191,11.6502 11.7761,11.2722 L11.7761,11.2722 Z" id="Fill-1" fill="#4A4A4B" mask="url(#mask-2)"></path>
                </g>
                <mask id="mask-4" fill="white">
                    <use xlink:href="#path-3"></use>
                </mask>
                <g id="Clip-5"></g>
                <path d="M19.871,46.26 L21.599,46.26 L21.599,1.409 L19.871,1.409 L19.871,46.26 Z M22.304,0 L19.166,0 C18.777,0 18.462,0.315 18.462,0.704 L18.462,46.965 C18.462,47.354 18.777,47.669 19.166,47.669 L22.304,47.669 C22.693,47.669 23.008,47.354 23.008,46.965 L23.008,0.704 C23.008,0.315 22.693,0 22.304,0 L22.304,0 Z" id="Fill-4" fill="#4A4A4B" mask="url(#mask-4)"></path>
                <path d="M4.7354,7.3768 L10.3614,9.0908 L10.3614,11.0758 C10.3614,12.3028 9.3634,13.3018 8.1354,13.3018 L6.9604,13.3018 C5.7334,13.3018 4.7354,12.3028 4.7354,11.0758 L4.7354,7.3768 Z M6.0374,5.7558 L9.0584,5.7558 C9.7774,5.7558 10.3614,6.3408 10.3614,7.0588 L10.3614,7.6178 L5.2154,6.0498 C5.4394,5.8668 5.7264,5.7558 6.0374,5.7558 L6.0374,5.7558 Z M6.9614,14.7108 L8.1354,14.7108 C10.1394,14.7108 11.7704,13.0798 11.7704,11.0758 L11.7704,8.5688 L11.7704,8.5608 L11.7704,7.0588 C11.7704,5.5638 10.5534,4.3468 9.0584,4.3468 L6.0374,4.3468 C4.5424,4.3468 3.3264,5.5638 3.3264,7.0588 L3.3264,11.0758 C3.3264,13.0798 4.9574,14.7108 6.9614,14.7108 L6.9614,14.7108 Z" id="Fill-6" fill="#4A4A4B" mask="url(#mask-4)"></path>
                <path d="M13.4143,30.5732 L13.4143,30.5732 L11.4693,30.5732 L11.4693,29.9412 L11.4693,27.1022 L11.4693,20.3422 L11.4693,19.2412 C11.4693,18.8522 11.1543,18.5362 10.7653,18.5362 C10.3763,18.5362 10.0603,18.8522 10.0603,19.2412 L10.0603,20.3422 L10.0603,27.1022 L10.0603,29.9412 L10.0603,31.2772 L10.0603,32.1802 L4.7623,32.1802 L4.7623,31.2772 L4.7623,29.9412 L4.7623,27.1022 L4.7623,20.3422 L4.7623,19.2412 C4.7623,18.8522 4.4473,18.5362 4.0583,18.5362 C3.6693,18.5362 3.3533,18.8522 3.3533,19.2412 L3.3533,20.3422 L3.3533,27.1022 L3.3533,29.9412 L3.3533,30.5732 L1.4093,30.5732 L1.4093,19.0592 C1.4093,17.6992 2.5153,16.5922 3.8763,16.5922 L7.4113,16.5922 L10.9473,16.5922 C12.3073,16.5922 13.4143,17.6982 13.4143,19.0592 L13.4143,30.5732 Z M8.1153,46.5912 L10.0603,46.5912 L10.0603,33.5882 L8.1153,33.5882 L8.1153,46.5912 Z M4.7623,46.5912 L6.7073,46.5912 L6.7073,33.5882 L4.7623,33.5882 L4.7623,46.5912 Z M10.9473,15.1832 L7.4113,15.1832 L3.8763,15.1832 C1.7393,15.1832 0.0003,16.9222 0.0003,19.0592 L0.0003,31.2772 C0.0003,31.6672 0.3153,31.9822 0.7043,31.9822 L3.3533,31.9822 L3.3533,32.8842 L3.3533,47.2952 C3.3533,47.6852 3.6693,48.0002 4.0583,48.0002 L7.4113,48.0002 L10.7653,48.0002 C11.1543,48.0002 11.4693,47.6852 11.4693,47.2952 L11.4693,32.8842 L11.4693,31.9822 L14.1183,31.9822 C14.5073,31.9822 14.8233,31.6662 14.8233,31.2772 L14.8233,19.0592 C14.8233,16.9222 13.0843,15.1832 10.9473,15.1832 L10.9473,15.1832 Z" id="Fill-7" fill="#4A4A4B" mask="url(#mask-4)"></path>
            </g>
        </g>
    </g>
</svg>