<?xml version="1.0" encoding="utf-8"?>
<!-- Generator: Adobe Illustrator 19.0.0, SVG Export Plug-In . SVG Version: 6.00 Build 0)  -->
<svg version="1.1" id="Layer_1" width="48px" height="48px" xmlns="http://www.w3.org/2000/svg" xmlns:xlink="http://www.w3.org/1999/xlink" x="0px" y="0px"
	 viewBox="9 259.4 48 43.3" style="enable-background:new 9 259.4 48 43.3;" xml:space="preserve">
<style type="text/css">
	.st0{fill:#4A4A4A;}
</style>
<g>
	<g>
		<g>
			<path class="st0" d="M47.7,291.5c5.2,0,9.3-4.2,9.3-9.3c0-2.6-1.1-5-2.9-6.8c0.7-1.5,1.1-3.1,1.1-4.8c0-6.2-5-11.2-11.2-11.2
				c-6,0-10.9,4.8-11.2,10.7c-2.2,0.9-4,2.6-5.2,4.7c-0.6-0.1-1.2-0.2-1.8-0.2c-5.3,0-9.6,4.3-9.6,9.6c0,5,3.8,9.1,8.6,9.6v6.9h-8.6
				c-0.5,0-1,0.4-1,1c0,0.5,0.4,1,1,1h32.7c0.5,0,1-0.4,1-1c0-0.5-0.4-1-1-1H43v-9.2L47.7,291.5L47.7,291.5z M25.8,281.6
				c-0.5,0-1,0.4-1,1v5.2c0,0,0,0,0,0v4c-3.8-0.5-6.7-3.7-6.7-7.6c0-4.2,3.4-7.6,7.6-7.6s7.6,3.4,7.6,7.6c0,3.9-2.9,7.1-6.7,7.6
				v-3.6l3.5-3.5c0.4-0.4,0.4-1,0-1.4c-0.4-0.4-1-0.4-1.4,0l-2.1,2.1v-2.8C26.7,282.1,26.3,281.6,25.8,281.6z M41.1,300.7h-3.6
				l1.4-1.4c0.4-0.4,0.4-1,0-1.4c-0.4-0.4-1-0.4-1.4,0l-1.4,1.4v-1.9c0-0.5-0.4-1-1-1s-1,0.4-1,1v1.9l-1.4-1.4c-0.4-0.4-1-0.4-1.4,0
				c-0.4,0.4-0.4,1,0,1.4l1.4,1.4h-6v-6.9c2.4-0.2,4.6-1.4,6.2-3.1c1.4,0.6,2.8,0.9,4.4,0.9h3.8V300.7z M42,271c-0.5,0-1,0.4-1,1
				v4.5l-1.1-1.1c0.2-0.4,0.3-0.9,0.3-1.4c0-1.7-1.4-3.2-3.2-3.2c-1.7,0-3.2,1.4-3.2,3.2c0,1.7,1.4,3.2,3.2,3.2c0.5,0,1-0.1,1.4-0.3
				l2.5,2.5v3.9c0,0,0,0,0,0v2.2l-2.3-2.3c-0.4-0.4-1-0.4-1.4,0c-0.4,0.4-0.4,1,0,1.4l3.7,3.7v1.5h-3.8c-1.1,0-2.2-0.2-3.2-0.6
				c0.8-1.4,1.3-3,1.3-4.8c0-4-2.4-7.4-5.8-8.8c1.1-1.7,2.7-3,4.6-3.7c0.4-0.1,0.7-0.5,0.6-0.9c0,0,0-0.2,0-0.2
				c0-5.1,4.1-9.2,9.2-9.2c5.1,0,9.2,4.1,9.2,9.2c0,1.6-0.4,3.2-1.2,4.6c-0.2,0.4-0.1,1,0.2,1.3c1.8,1.4,2.8,3.5,2.8,5.8
				c0,4.1-3.3,7.4-7.4,7.4H43v-1.9c0,0,0,0,0,0v-4.1l3.5-3.5c0.4-0.4,0.4-1,0-1.4c-0.4-0.4-1-0.4-1.4,0l-2.1,2.1v-1.9c0,0,0,0,0,0
				V272C43,271.5,42.6,271,42,271z M38.3,273.9c0,0.3-0.1,0.6-0.3,0.8c0,0,0,0-0.1,0.1c0,0,0,0-0.1,0.1c-0.2,0.2-0.5,0.3-0.8,0.3
				c-0.7,0-1.2-0.5-1.2-1.2c0-0.7,0.5-1.2,1.2-1.2C37.8,272.7,38.3,273.3,38.3,273.9z"/>
		</g>
	</g>
	<g>
		<g>
			<path class="st0" d="M12.8,300.7H10c-0.5,0-1,0.4-1,1c0,0.5,0.4,1,1,1h2.8c0.5,0,1-0.4,1-1C13.8,301.1,13.3,300.7,12.8,300.7z"/>
		</g>
	</g>
	<g>
		<g>
			<path class="st0" d="M56,300.7h-3.8c-0.5,0-1,0.4-1,1c0,0.5,0.4,1,1,1H56c0.5,0,1-0.4,1-1C57,301.1,56.5,300.7,56,300.7z"/>
		</g>
	</g>
	<g>
		<g>
			<path class="st0" d="M22.9,262.8c-0.9-2.1-3-3.5-5.4-3.5c-2.5,0-4.6,1.5-5.5,3.8c-1.7,0.3-3.1,1.8-3.1,3.6c0,0.5,0.4,1,1,1h15.2
				c0.5,0,1-0.4,1-1C26.1,264.8,24.8,263.2,22.9,262.8z M11.3,265.7c0.3-0.4,0.8-0.7,1.4-0.7c0,0,0.1,0,0.1,0c0.5,0,0.9-0.3,1-0.7
				c0.4-1.8,2-3,3.8-3c1.7,0,3.2,1.1,3.7,2.7c0.1,0.4,0.5,0.7,0.9,0.7c0.7,0,1.4,0.4,1.7,1H11.3z"/>
		</g>
	</g>
	<g>
		<g>
			<path class="st0" d="M47.4,265.1c-1.7,0-3.2,1.4-3.2,3.2c0,1.7,1.4,3.2,3.2,3.2s3.2-1.4,3.2-3.2
				C50.5,266.5,49.1,265.1,47.4,265.1z M47.4,269.5c-0.7,0-1.2-0.5-1.2-1.2c0-0.7,0.5-1.2,1.2-1.2s1.2,0.5,1.2,1.2
				C48.6,268.9,48,269.5,47.4,269.5z"/>
		</g>
	</g>
	<g>
		<g>
			<path class="st0" d="M49.7,280.6c-1.7,0-3.2,1.4-3.2,3.2c0,1.7,1.4,3.2,3.2,3.2c1.7,0,3.2-1.4,3.2-3.2
				C52.8,282,51.4,280.6,49.7,280.6z M49.7,284.9c-0.7,0-1.2-0.5-1.2-1.2c0-0.7,0.5-1.2,1.2-1.2c0.7,0,1.2,0.5,1.2,1.2
				S50.3,284.9,49.7,284.9z"/>
		</g>
	</g>
</g>
</svg>
