<?xml version="1.0" encoding="utf-8"?>
<!-- Generator: Adobe Illustrator 19.0.0, SVG Export Plug-In . SVG Version: 6.00 Build 0)  -->
<svg version="1.1" width="48px" height="48px" id="Layer_1" xmlns="http://www.w3.org/2000/svg" xmlns:xlink="http://www.w3.org/1999/xlink" x="0px" y="0px"
	 viewBox="9 257 48 48" style="enable-background:new 9 257 48 48;" xml:space="preserve">
<style type="text/css">
	.st0{fill:#4A4A4A;}
</style>
<path class="st0" d="M24.3,298.1c-0.2,0-0.5,0.1-0.7,0.3s-0.3,0.4-0.3,0.7s0.1,0.5,0.3,0.7c0.2,0.2,0.4,0.3,0.7,0.3
	c0.2,0,0.5-0.1,0.7-0.3s0.3-0.4,0.3-0.7s-0.1-0.5-0.3-0.7C24.8,298.2,24.6,298.1,24.3,298.1z"/>
<path class="st0" d="M43.1,280.1c-0.2,0-0.5,0.1-0.7,0.3s-0.3,0.4-0.3,0.7s0.1,0.5,0.3,0.7s0.4,0.3,0.7,0.3s0.5-0.1,0.7-0.3
	s0.3-0.4,0.3-0.7s-0.1-0.5-0.3-0.7S43.4,280.1,43.1,280.1z"/>
<path class="st0" d="M56.1,257h-4.5c-0.5,0-0.9,0.4-0.9,0.9v18.4h-3.2v-8.1c0-0.5-0.4-0.9-0.9-0.9H43v-8.1c0-0.5-0.4-0.9-0.9-0.9h-9
	c0,0,0,0,0,0c0,0,0,0,0,0h-9c-0.5,0-0.9,0.4-0.9,0.9v8.1h-3.6c-0.5,0-0.9,0.4-0.9,0.9v8.1h-3.2v-18.4c0-0.5-0.4-0.9-0.9-0.9H9.9
	c-0.5,0-0.9,0.4-0.9,0.9v46.1c0,0.5,0.4,0.9,0.9,0.9h4.5c0.5,0,0.9-0.4,0.9-0.9v-4.1H21c0.5,0,0.9-0.4,0.9-0.9s-0.4-0.9-0.9-0.9
	h-5.6v-1.9h35.3v1.9H27.8c-0.5,0-0.9,0.4-0.9,0.9s0.4,0.9,0.9,0.9h22.8v4.1c0,0.5,0.4,0.9,0.9,0.9h4.5c0.5,0,0.9-0.4,0.9-0.9v-46.1
	C57,257.4,56.6,257,56.1,257z M45.6,272.9h-2.4c-0.5,0-0.9,0.4-0.9,0.9s0.4,0.9,0.9,0.9h2.4v1.5h-7.1v-7.1h7.1V272.9z M29.4,269.2
	h7.1v3.8h-2.4c-0.5,0-0.9,0.4-0.9,0.9s0.4,0.9,0.9,0.9h2.4v1.5h-7.1V269.2z M34,260.2h7.1v3.8h-2.4c-0.5,0-0.9,0.4-0.9,0.9
	s0.4,0.9,0.9,0.9h2.4v1.5H34V260.2z M24.9,260.2h7.1v3.8h-2.4c-0.5,0-0.9,0.4-0.9,0.9s0.4,0.9,0.9,0.9h2.4v1.5h-7.1V260.2z
	 M20.4,269.2h7.1v3.8h-2.4c-0.5,0-0.9,0.4-0.9,0.9s0.4,0.9,0.9,0.9h2.4v1.5h-7.1V269.2z M13.5,303.1h-2.6v-44.3h2.6V303.1z
	 M20.4,294.3v-7.1h7.1v3.8h-2.4c-0.5,0-0.9,0.4-0.9,0.9s0.4,0.9,0.9,0.9h2.4v1.5H20.4z M29.4,294.3v-7.1h7.1v3.8h-2.4
	c-0.5,0-0.9,0.4-0.9,0.9s0.4,0.9,0.9,0.9h2.4v1.5H29.4z M38.5,294.3v-7.1h7.1v3.8h-2.4c-0.5,0-0.9,0.4-0.9,0.9s0.4,0.9,0.9,0.9h2.4
	v1.5H38.5z M47.5,294.3v-8.1c0-0.5-0.4-0.9-0.9-0.9h-9c0,0,0,0,0,0s0,0,0,0h-9c0,0,0,0,0,0c0,0,0,0,0,0h-9c-0.5,0-0.9,0.4-0.9,0.9
	v8.1h-3.2v-12.4H39c0.5,0,0.9-0.4,0.9-0.9s-0.4-0.9-0.9-0.9H15.4v-1.9h35.3v1.9H47c-0.5,0-0.9,0.4-0.9,0.9s0.4,0.9,0.9,0.9h3.6v12.4
	H47.5z M55.1,303.1h-2.6v-44.3h2.6V303.1z"/>
</svg>
