<?xml version="1.0" encoding="UTF-8"?>
<svg width="48px" height="48px" viewBox="0 0 48 48" version="1.1" xmlns="http://www.w3.org/2000/svg" xmlns:xlink="http://www.w3.org/1999/xlink">
    <!-- Generator: Sketch 42 (36781) - http://www.bohemiancoding.com/sketch -->
    <title>15-is-residence-required</title>
    <desc>Created with Sketch.</desc>
    <defs></defs>
    <g id="hotel-room-detail" stroke="none" stroke-width="1" fill="none" fill-rule="evenodd">
        <g id="15-is-residence-required">
            <rect id="Rectangle-9" x="0" y="0" width="48" height="48"></rect>
            <g id="Page-1" fill="#4D4E50">
                <polygon id="Fill-1" points="27.09826 45.3373373 17.3464094 35.6946947 16 37.026026 27.0972477 48 48 27.3323323 46.6535906 26"></polygon>
                <path d="M41.7801516,0 L5.96972999,4.00958234 L6.1895784,5.99737527 L7.95930838,5.7993959 L7.95930838,19.0030205 L5.96972999,19.0030205 L5.96972999,21.0028122 L5.96972999,27.0021873 L5.96972999,29.001979 L7.95930838,29.001979 L7.95930838,46.0002083 L0,46.0002083 L0,48 L7.95930838,48 L9.94789199,48 L18.9009948,48 L18.8940313,48 L19.5864045,48 L19.5893889,45.9972086 L18.9009948,46.0002083 L9.94789199,46.0002083 L9.94789199,29.001979 L28.8488868,29.001979 L30.8384652,29.001979 L30.8384652,27.0021873 L30.8384652,21.0028122 L30.8384652,19.0030205 L28.8488868,19.0030205 L28.8488868,11.0038538 L28.4619138,11.0038538 L26.8593084,11.0038538 L20.8905732,11.0038538 L19.508811,11.0038538 L18.9009948,11.0038538 L18.9009948,19.0030205 L9.94789199,19.0030205 L9.94789199,5.57641912 L37.8019896,2.45774399 L37.8019896,27.0021873 L39.791568,27.0371836 L39.791568,2.23576711 L42,1.98779294 L41.7801516,0 Z M20.8905732,19.0030205 L20.8905732,13.0036455 L26.8593084,13.0036455 L26.8593084,19.0030205 L20.8905732,19.0030205 Z M7.95930838,27.0021873 L7.95930838,21.0028122 L28.8498816,21.0028122 L28.8498816,27.0021873 L7.95930838,27.0021873 Z" id="Fill-2"></path>
                <polygon id="Fill-3" points="37.9938424 43.0318535 37.9938424 46.0101533 35 46.0101533 35.0040025 48 37.9938424 48 39.9950739 48 48 48 48 46.0101533 39.9950739 46.0101533 39.9950739 43"></polygon>
            </g>
        </g>
    </g>
</svg>