<?xml version="1.0" encoding="UTF-8"?>
<svg width="48px" height="48px" viewBox="0 0 48 48" version="1.1" xmlns="http://www.w3.org/2000/svg" xmlns:xlink="http://www.w3.org/1999/xlink">
    <!-- Generator: Sketch 42 (36781) - http://www.bohemiancoding.com/sketch -->
    <title>05-rooms</title>
    <desc>Created with Sketch.</desc>
    <defs></defs>
    <g id="Page-1" stroke="none" stroke-width="1" fill="none" fill-rule="evenodd">
        <g id="05-rooms">
            <rect id="Rectangle-9" fill-opacity="0" fill="#FFFFFF" x="0" y="0" width="48" height="48"></rect>
            <path d="M46,37.0049107 L46,37.0002789 C46.0007441,37.0008333 46,37.0022554 46,37.0049107 Z M45.9986107,37 C45.9993111,37 46,26.9937394 46,26.9937394 C46,24.7958125 44.2027373,23 41.9936134,23 L6.00638655,23 C3.7893939,23 2,24.7867788 2,26.9937394 L2,37.0003329 C2.00022838,37.0000965 45.9986107,37 45.9986107,37 Z M0,26.9937394 C0,23.6834885 2.68354127,21 6.00638655,21 L41.9936134,21 C45.3108491,21 48,23.6947819 48,26.9937394 L48,37.0049107 C48,38.1067681 47.1050616,39 45.9986107,39 L2.00138927,39 C0.896052496,39 0,38.1073772 0,37.0049107 L0,26.9937394 Z" id="Rectangle-4" fill="#4A4A4A" fill-rule="nonzero"></path>
            <path d="M44,21 L42,23 L42,21 L44,21 Z M42,21 L42,10.9937394 C42,8.79527792 40.205416,7 38.0007795,7 L9.99922047,7 C7.79051396,7 6,8.78873774 6,10.9937394 L6,21 L42,21 Z M4,10.9937394 C4,7.68348852 6.68662393,5 9.99922047,5 L38.0007795,5 C41.3140575,5 44,7.69478187 44,10.9937394 L44,23 L4,23 L4,10.9937394 Z" id="Rectangle-4" fill="#4A4A4A" fill-rule="nonzero"></path>
            <path d="M11,21 L21,21 L21,14.999615 C21,14.9973212 11.0058587,15 11.0058587,15 C11.000732,15 11,21 11,21 Z M9,14.999615 C9,13.8952581 9.89706013,13 11.0058587,13 L20.9941413,13 C22.1019465,13 23,13.8874333 23,14.999615 L23,23 L9,23 L9,14.999615 Z" id="Rectangle-4" fill="#4A4A4A" fill-rule="nonzero"></path>
            <path d="M39,21 L37,23 L37,21 L39,21 Z M37,21 L37,14.999615 C37,14.9973212 27.0058587,15 27.0058587,15 C27.000732,15 27,21 27,21 L37,21 Z M25,14.999615 C25,13.8952581 25.8970601,13 27.0058587,13 L36.9941413,13 C38.1019465,13 39,13.8874333 39,14.999615 L39,23 L25,23 L25,14.999615 Z" id="Rectangle-4" fill="#4A4A4A" fill-rule="nonzero"></path>
            <rect id="Rectangle-3" fill="#4A4A4A" x="6" y="39" width="2" height="4"></rect>
            <rect id="Rectangle-3" fill="#4A4A4A" x="7" y="29" width="14" height="2"></rect>
            <rect id="Rectangle-3" fill="#4A4A4A" x="27" y="29" width="14" height="2"></rect>
            <rect id="Rectangle-3" fill="#4A4A4A" x="40" y="39" width="2" height="4"></rect>
        </g>
    </g>
</svg>