<?xml version="1.0" encoding="UTF-8"?>
<svg width="48px" height="48px" viewBox="0 0 48 48" version="1.1" xmlns="http://www.w3.org/2000/svg" xmlns:xlink="http://www.w3.org/1999/xlink">
    <!-- Generator: Sketch 42 (36781) - http://www.bohemiancoding.com/sketch -->
    <title>07-s-train</title>
    <desc>Created with Sketch.</desc>
    <defs></defs>
    <g id="Page-1" stroke="none" stroke-width="1" fill="none" fill-rule="evenodd">
        <g id="07-s-train" fill="#4A4A4A">
            <path d="M10,11.9924054 L10,33.9982567 C10,34.0026924 37.9982567,34 37.9982567,34 C38.0026924,34 38,11.9924054 38,11.9924054 C38,8.68248413 35.3173626,6 32.0075946,6 L15.9924054,6 C12.6824841,6 10,8.68263739 10,11.9924054 Z M8,11.9924054 C8,7.57832179 11.5776607,4 15.9924054,4 L32.0075946,4 C36.4216782,4 40,7.57766074 40,11.9924054 L40,33.9982567 C40,35.103789 39.1107383,36 37.9982567,36 L10.0017433,36 C8.89621101,36 8,35.1107383 8,33.9982567 L8,11.9924054 Z" id="Rectangle-6" fill-rule="nonzero"></path>
            <path d="M14,14 L14,17.9914698 C14,17.9956263 33.9950534,18 33.9950534,18 C33.9972945,18 34,14 34,14 C34,11.7945031 32.2085911,10 30.0056959,10 L17.9943041,10 C15.7884373,10 14,11.790239 14,14 Z M12,14 C12,10.6862915 14.6832456,8 17.9943041,8 L30.0056959,8 C33.3162587,8 36,10.6930342 36,14 L36,17.9914698 C36,19.1007504 35.1029738,20 33.9950534,20 L14.0049466,20 C12.8976452,20 12,19.0980496 12,17.9914698 L12,14 Z" id="Rectangle-6" fill-rule="nonzero"></path>
            <path d="M18,2 L18,4 L30,4 L30,2 L18,2 Z M16,1.99791312 C16,0.894496173 16.8945138,0 17.9940603,0 L30.0059397,0 C31.1072288,0 32,0.898260623 32,1.99791312 L32,6 L16,6 L16,1.99791312 Z" id="Rectangle-6" fill-rule="nonzero"></path>
            <path d="M16,29 C17.1045695,29 18,28.1045695 18,27 C18,25.8954305 17.1045695,25 16,25 C14.8954305,25 14,25.8954305 14,27 C14,28.1045695 14.8954305,29 16,29 Z M16,31 C13.790861,31 12,29.209139 12,27 C12,24.790861 13.790861,23 16,23 C18.209139,23 20,24.790861 20,27 C20,29.209139 18.209139,31 16,31 Z" id="Oval" fill-rule="nonzero"></path>
            <path d="M32,29 C33.1045695,29 34,28.1045695 34,27 C34,25.8954305 33.1045695,25 32,25 C30.8954305,25 30,25.8954305 30,27 C30,28.1045695 30.8954305,29 32,29 Z M32,31 C29.790861,31 28,29.209139 28,27 C28,24.790861 29.790861,23 32,23 C34.209139,23 36,24.790861 36,27 C36,29.209139 34.209139,31 32,31 Z" id="Oval" fill-rule="nonzero"></path>
            <polygon id="Path-7" fill-rule="nonzero" points="9.29289322 37.2928932 0.292893219 46.2928932 1.70710678 47.7071068 10.7071068 38.7071068"></polygon>
            <polygon id="Path-7" fill-rule="nonzero" points="37.2928932 38.7071068 46.2928932 47.7071068 47.7071068 46.2928932 38.7071068 37.2928932"></polygon>
            <rect id="Rectangle-7" x="15" y="39" width="18" height="2"></rect>
            <rect id="Rectangle-7" x="11" y="43" width="26" height="2"></rect>
        </g>
    </g>
</svg>