<?xml version="1.0" encoding="UTF-8"?>
<svg width="48px" height="48px" viewBox="0 0 48 48" version="1.1" xmlns="http://www.w3.org/2000/svg" xmlns:xlink="http://www.w3.org/1999/xlink">
    <!-- Generator: Sketch 42 (36781) - http://www.bohemiancoding.com/sketch -->
    <title>01-size</title>
    <desc>Created with Sketch.</desc>
    <defs></defs>
    <g id="Page-1" stroke="none" stroke-width="1" fill="none" fill-rule="evenodd">
        <g id="01-size" fill-rule="nonzero" fill="#4A4A4A">
            <path d="M34,15.4142136 L34,20 L36,20 L36,12 L28,12 L28,14 L32.5857864,14 L14,32.5857864 L14,28 L12,28 L12,36 L20,36 L20,34 L15.4142136,34 L34,15.4142136 Z M46,10 L46,2 L38,2 L38,-1.77635684e-15 L48,-1.77635684e-15 L48,10 L46,10 Z M38,46 L46,46 L46,38 L48,38 L48,48 L38,48 L38,46 Z M2,38 L2,46 L10,46 L10,48 L0,48 L-1.77635684e-15,38 L2,38 Z M10,2 L2,2 L2,10 L8.8817842e-16,10 L-9.48791779e-16,-1.77635684e-15 L10,-3.55271368e-15 L10,2 Z" id="icon-size"></path>
        </g>
    </g>
</svg>