<?xml version="1.0" encoding="UTF-8"?>
<svg width="48px" height="48px" viewBox="0 0 48 48" version="1.1" xmlns="http://www.w3.org/2000/svg" xmlns:xlink="http://www.w3.org/1999/xlink">
    <!-- Generator: Sketch 42 (36781) - http://www.bohemiancoding.com/sketch -->
    <title>19-washing-machine</title>
    <desc>Created with Sketch.</desc>
    <defs></defs>
    <g id="Page-1" stroke="none" stroke-width="1" fill="none" fill-rule="evenodd">
        <g id="19-washing-machine">
            <rect id="Rectangle-9" fill-opacity="0" fill="#FFFFFF" x="0" y="0" width="48" height="48"></rect>
            <rect id="Rectangle-2" fill="#4A4A4A" x="0" y="39" width="48" height="2"></rect>
            <path d="M11,39 L37,39 L37,9 L11,9 L11,39 Z M9,7 L39,7 L39,41 L9,41 L9,7 Z" id="Rectangle-2" fill="#4A4A4A" fill-rule="nonzero"></path>
            <rect id="Rectangle-2" fill="#4A4A4A" x="16" y="10" width="8" height="2"></rect>
            <rect id="Rectangle-2" fill="#4A4A4A" x="12" y="10" width="2" height="2"></rect>
            <rect id="Rectangle-2" fill="#4A4A4A" x="10" y="13" width="28" height="2"></rect>
            <rect id="Rectangle-2" fill="#4A4A4A" x="10" y="35" width="28" height="2"></rect>
            <path d="M24,28 C25.6568542,28 27,26.6568542 27,25 C27,23.3431458 25.6568542,22 24,22 C22.3431458,22 21,23.3431458 21,25 C21,26.6568542 22.3431458,28 24,28 Z M24,30 C21.2385763,30 19,27.7614237 19,25 C19,22.2385763 21.2385763,20 24,20 C26.7614237,20 29,22.2385763 29,25 C29,27.7614237 26.7614237,30 24,30 Z" id="Path" fill="#4A4A4A" fill-rule="nonzero"></path>
            <path d="M24,31 C27.3137085,31 30,28.3137085 30,25 C30,21.6862915 27.3137085,19 24,19 C20.6862915,19 18,21.6862915 18,25 C18,28.3137085 20.6862915,31 24,31 Z M24,33 C19.581722,33 16,29.418278 16,25 C16,20.581722 19.581722,17 24,17 C28.418278,17 32,20.581722 32,25 C32,29.418278 28.418278,33 24,33 Z" id="Path" fill="#4A4A4A" fill-rule="nonzero"></path>
        </g>
    </g>
</svg>